<?xml version="1.0" encoding="UTF-8"?>
<svg width="49px" height="80px" viewBox="0 0 49 80" version="1.1" xmlns="http://www.w3.org/2000/svg" xmlns:xlink="http://www.w3.org/1999/xlink">
    <!-- Generator: Sketch 61.2 (89653) - https://sketch.com -->
    <title>bolt_white</title>
    <desc>Created with Sketch.</desc>
    <g id="bolt_white" stroke="none" stroke-width="1" fill="none" fill-rule="evenodd">
        <g id="energy" transform="translate(2.000000, 1.000000)" fill="#FFFFFF" fill-rule="nonzero">
            <path d="M18.1458573,79 L17.1949406,78.8275105 C15.9702191,78.3775377 15.222806,77.1251136 15.396709,75.8164429 L18.4085619,52.7515904 L6.77555771,52.7515904 C5.7321394,52.7515904 4.77382258,52.1553765 4.30021427,51.2104338 C3.82660595,50.265491 3.91910758,49.1293099 4.53701842,48.2781114 L24.8873756,20.1548154 C25.6458889,19.1011293 27.0223131,18.7111529 28.2026338,19.2248718 C29.3866546,19.7310911 30.0748667,20.9947646 29.863963,22.2771868 L26.7041075,41.502272 L38.2261097,41.502272 C39.2399275,41.502272 40.1723439,42.0609881 40.6607525,42.9646834 C41.145461,43.8646289 41.1084603,44.9633123 40.5645508,45.8295098 L20.4842983,77.7025786 C19.9625892,78.5275286 19.0708735,79 18.1458573,79 Z" id="Path"></path>
            <g id="Spark-Digital-lollipop">
                <rect id="Rectangle" x="20" y="0" width="5" height="9"></rect>
                <polygon id="Rectangle" transform="translate(40.949654, 11.829570) rotate(-51.710000) translate(-40.949654, -11.829570) " points="36.7144908 9.53500258 45.1311723 9.63618643 45.1848179 14.1241379 36.7681364 14.0229541"></polygon>
                <polygon id="Rectangle" transform="translate(4.416123, 11.749480) rotate(-37.350000) translate(-4.416123, -11.749480) " points="2.12175642 7.57109344 6.61146094 7.62429025 6.71048883 15.9278659 2.22078432 15.8746691"></polygon>
            </g>
        </g>
    </g>
</svg>