<svg xmlns="http://www.w3.org/2000/svg" width="330" height="229" fill="none" viewBox="0 0 330 229">
    <path fill="#92B5F9" fill-rule="evenodd" d="M257.612 200.094c-4.857-4.081-7.347-7.855-7.798-8.571l17.082-10.837s-.023-.041-.073-.115c.014.022 1.438 2.124 4.282 4.391 3.632 2.894 7.853 4.742 12.546 5.492 5.975.956 12.139-1.046 16.258-2.892 4.591-2.058 7.67-4.364 7.698-4.387l15.149 2.941-2.848 13.159c-5.918 4.56-15.326 9.066-24.044 10.805-14.468 2.885-28.28-1.609-38.252-9.986z" clip-rule="evenodd"/>
    <path fill="#DDE8FE" fill-rule="evenodd" d="M282.33 57.325l4.009-2.088 3.984 2.134c.454.243.987-.142.903-.652l-.736-4.474 3.251-3.147c.37-.358.171-.987-.337-1.065l-4.466-.678-1.974-4.078c-.225-.465-.884-.468-1.114-.007l-2.021 4.055-4.473.627c-.51.07-.716.698-.35 1.06l3.216 3.185-.79 4.465c-.09.509.44.9.898.663z" clip-rule="evenodd"/>
    <path fill="#F47257" fill-rule="evenodd" d="M76.66 159.986h197.262V139.25H76.661v20.736z" clip-rule="evenodd"/>
    <path fill="#4951EC" fill-rule="evenodd" d="M221.452 212.647c-44.482-23.621-92.798-38.16-142.401-42.852l5.513-64.848c57.353 5.424 113.217 22.235 164.649 49.547l-27.761 58.153z" clip-rule="evenodd"/>
    <path fill="#7C9AF2" fill-rule="evenodd" d="M83.424 157.938l3.757-40.443c5.213.537 9.883-2.842 10.45-7.683 47.815 6.03 94.415 20.054 138.048 41.541-1.939 4.43.337 9.899 5.033 12.344l-17.043 36.445c-4.321-2.25-9.436-.389-11.374 4.038-38.318-18.87-79.24-31.184-121.228-36.482.567-4.838-2.847-9.264-7.643-9.76z" clip-rule="evenodd"/>
    <path fill="#50BFA5" fill-rule="evenodd" d="M186.069 160.163c-4.009 11.596-16.374 17.503-27.841 13.964-11.462-3.569-18.827-15.592-16.249-27.632 2.57-12.02 15.292-19.221 28.188-15.217 12.902 3.992 19.908 17.311 15.902 28.885z" clip-rule="evenodd"/>
    <path fill="#3C8F7C" fill-rule="evenodd" d="M158.131 170.044l.962-3.884c-1.729-.562-3.364-1.358-4.675-2.196-1.093-.701-1.491-2.122-.9-3.255l.07-.137c.652-1.246 2.252-1.646 3.46-.847 1.23.813 2.675 1.541 4.284 1.992 2.343.658 4.174.235 4.6-1.395.4-1.547-.668-2.921-3.501-4.809-4.099-2.718-6.713-5.554-5.81-9.543.815-3.613 4.135-5.775 8.972-5.35l.948-3.887c1.423.397 2.844.799 4.262 1.21-.303 1.197-.609 2.394-.912 3.59 1.549.521 2.783 1.102 3.785 1.695 1.226.725 1.657 2.239.987 3.383-.693 1.179-2.284 1.518-3.519.748-.926-.579-2.106-1.169-3.612-1.6-2.776-.791-3.954.114-4.232 1.257-.33 1.354.955 2.613 4.199 4.953 4.57 3.174 5.936 6.048 4.932 9.692-1 3.614-4.409 5.882-9.282 5.345-.355 1.387-.713 2.771-1.07 4.158-1.314-.38-2.63-.754-3.948-1.12z" clip-rule="evenodd"/>
    <path fill="#50BFA5" fill-rule="evenodd" d="M135.186 146.044c-11.338-2.627-22.784-4.767-34.312-6.412l.8-6.235c11.689 1.668 23.296 3.839 34.792 6.502l-1.28 6.145zM223.59 177.571c-10.55-5.181-21.285-9.9-32.177-14.144l2.068-5.902c11.044 4.304 21.929 9.088 32.628 14.342-.838 1.903-1.678 3.803-2.519 5.704z" clip-rule="evenodd"/>
    <path fill="#4951EC" fill-rule="evenodd" d="M242.238 138.453c-45.895 9.631-89.598 28.928-128.808 56.879l-31.782-55.079c45.334-32.316 95.866-54.629 148.93-65.763 3.887 21.321 7.772 42.643 11.66 63.963z" clip-rule="evenodd"/>
    <path fill="#7C9AF2" fill-rule="evenodd" d="M110.103 183.112l-19.586-34.554c4.144-2.901 5.724-8.57 3.466-12.783 38.629-25.741 80.781-44.355 124.869-55.139 1.016 4.761 5.72 7.655 10.539 6.6l7.57 39.859c-4.435.972-7.182 5.718-6.166 10.474-38.716 9.471-75.731 25.816-109.654 48.42-2.256-4.208-7.224-5.548-11.038-2.877z" clip-rule="evenodd"/>
    <path fill="#4951EC" fill-rule="evenodd" d="M187.103 119.323c3.451 11.782-2.411 24.374-12.833 28.885-10.434 4.483-22.517-.373-27.271-11.591-4.748-11.197.662-25.049 12.396-30.101 11.729-5.065 24.265 1.049 27.708 12.807z" clip-rule="evenodd"/>
    <path fill="#92B5F9" fill-rule="evenodd" d="M171.943 145.024l-1.438-3.702c-1.588.654-3.234 1.069-4.667 1.239-1.194.14-2.273-.736-2.463-2.013l-.022-.153c-.21-1.406.751-2.746 2.085-2.883 1.357-.139 2.826-.485 4.264-1.152 2.094-.974 3.21-2.482 2.621-4.048-.558-1.484-2.106-1.896-5.242-1.587-4.527.456-8.026-.128-9.565-3.877-1.395-3.394-.14-7.232 3.667-9.982l-1.449-3.697c1.267-.593 2.54-1.181 3.815-1.76l1.311 3.437c1.431-.575 2.662-.903 3.731-1.071 1.305-.205 2.461.723 2.598 2.059.142 1.382-.846 2.667-2.184 2.842-1.003.132-2.199.417-3.549 1.037-2.489 1.143-2.857 2.614-2.429 3.702.504 1.287 2.149 1.466 5.838 1.255 5.126-.393 7.724 1.017 8.999 4.556 1.259 3.511-.004 7.492-3.898 10.177l1.508 3.989c-1.179.537-2.357 1.082-3.531 1.632z" clip-rule="evenodd"/>
    <path fill="#50BFA5" fill-rule="evenodd" d="M141.737 140.597c-9.822 5.152-19.455 10.761-28.874 16.816l-2.857-5.469c9.551-6.14 19.319-11.827 29.278-17.05l2.453 5.703z" clip-rule="evenodd"/>
    <path fill="#4951EC" fill-rule="evenodd" d="M224.423 109.201c-10.652 2.62-21.186 5.725-31.571 9.306l-1.737-6.012c10.531-3.632 21.213-6.782 32.014-9.436.433 2.047.863 4.095 1.294 6.142z" clip-rule="evenodd"/>
    <path fill="#4951EC" fill-rule="evenodd" d="M249.561 178.746c-47.73-2.905-95.529 4.131-140.882 20.736l-18.732-61.768c52.437-19.202 107.705-27.336 162.891-23.977l-3.277 65.009z" clip-rule="evenodd"/>
    <path fill="#7C9AF2" fill-rule="evenodd" d="M108.215 186.77c-3.801-12.885-7.602-25.77-11.402-38.657 4.782-1.704 7.662-6.769 6.4-11.449 44.266-14.623 90.369-21.408 136.576-20.103-.097 4.879 3.896 8.933 8.916 9.194l-1.74 40.593c-4.621-.24-8.446 3.621-8.543 8.494-40.576-1.146-81.061 4.813-119.932 17.653-1.261-4.674-5.875-7.293-10.275-5.725z" clip-rule="evenodd"/>
    <path fill="#4951EC" fill-rule="evenodd" d="M199.341 145.547c.69 12.321-8.042 22.947-19.421 24.535-11.381 1.56-22.235-6.358-24.346-18.482-2.11-12.101 6.465-24.065 19.27-25.829 12.804-1.777 23.811 7.478 24.497 19.776z" clip-rule="evenodd"/>
    <path fill="#92B5F9" fill-rule="evenodd" d="M178.353 166.38l-.568-3.965c-1.725.211-3.454.173-4.912-.043-1.217-.182-2.085-1.318-1.975-2.604l.013-.155c.118-1.417 1.38-2.458 2.734-2.236 1.379.227 2.916.285 4.496.022 2.3-.384 3.758-1.546 3.539-3.219-.212-1.587-1.65-2.396-4.83-2.932-4.595-.764-7.927-2.263-8.584-6.3-.594-3.655 1.54-7.036 5.95-8.686l-.578-3.961c1.395-.238 2.792-.467 4.189-.689l.502 3.677c1.553-.177 2.851-.165 3.948-.044 1.342.15 2.273 1.356 2.097 2.685-.179 1.376-1.456 2.357-2.822 2.169-1.025-.14-2.278-.182-3.76.058-2.732.444-3.438 1.771-3.265 2.936.201 1.379 1.788 1.992 5.495 2.769 5.173.985 7.421 3.042 7.864 6.807.433 3.734-1.741 7.249-6.224 8.81l.571 4.265c-1.295.203-2.59.416-3.88.636z" clip-rule="evenodd"/>
    <path fill="#50BFA5" fill-rule="evenodd" d="M149.435 154.052c-10.932 2.369-21.782 5.231-32.523 8.583l-1.564-6.053c10.892-3.397 21.894-6.3 32.979-8.704l1.108 6.174zM238.686 145.691c-11.167-.303-22.33-.103-33.456.597l-.327-6.282c11.283-.709 22.599-.913 33.925-.605l-.142 6.29z" clip-rule="evenodd"/>
    <path fill="#FA7167" fill-rule="evenodd" d="M76.66 226.438h197.262V139.25H76.661v87.188z" clip-rule="evenodd"/>
    <path fill="#E8605D" fill-rule="evenodd" d="M273.921 204.18h-48.812c-2.163 0-3.917 1.844-3.917 4.12 0 2.275 1.754 4.122 3.917 4.122h-6.329c-2.163 0-3.919 1.844-3.919 4.12s1.756 4.12 3.919 4.12h1.097c-2.165 0-3.919 1.847-3.919 4.122 0 .588.118 1.149.33 1.654h57.633V204.18zM83.93 150.314H263.5v-6.771H83.93v6.771z" clip-rule="evenodd"/>
    <path fill="#7C9AF2" fill-rule="evenodd" d="M158.001 228.689H78.636c-4.122 0-7.463-3.356-7.463-7.496v-39.159c0-4.14 3.341-7.496 7.463-7.496h79.365c4.12 0 7.462 3.358 7.462 7.496v39.159c0 4.14-3.342 7.496-7.462 7.496z" clip-rule="evenodd"/>
    <path fill="#DDE8FE" fill-rule="evenodd" d="M77.235 198.864h23.22v-13.557h-23.22v13.557zM118.318 184.403h41.177v-2.53h-41.177v2.53zM80.656 213.923h75.778v-3.127H80.656v3.127zM80.656 221.285h75.778v-3.127H80.656v3.127z" clip-rule="evenodd"/>
    <path fill="#E8605D" fill-rule="evenodd" d="M86.21 163.758h83.728v-2.248H86.211v2.248z" clip-rule="evenodd"/>
    <path fill="#DDE8FE" fill-rule="evenodd" d="M233.126 117.508c5.916 8.465 3.878 20.144-4.552 26.086-8.429 5.941-20.058 3.895-25.974-4.571s-3.878-20.145 4.551-26.086c8.43-5.942 20.059-3.895 25.975 4.571z" clip-rule="evenodd"/>
    <path fill="#92B5F9" fill-rule="evenodd" d="M230.671 119.239c4.963 7.102 3.254 16.904-3.82 21.89-7.072 4.986-16.831 3.267-21.795-3.835-4.964-7.105-3.255-16.905 3.819-21.891 7.072-4.985 16.83-3.269 21.796 3.836z" clip-rule="evenodd"/>
    <path fill="#fff" fill-rule="evenodd" d="M219.669 139.32l-.682-2.533c-1.153.258-2.329.346-3.331.294-.836-.043-1.497-.732-1.508-1.574v-.101c-.012-.927.761-1.675 1.684-1.614.939.061 1.973-.002 3.013-.285 1.512-.411 2.39-1.278 2.102-2.344-.272-1.013-1.294-1.423-3.438-1.556-3.097-.188-5.395-.994-6.09-3.579-.632-2.346.519-4.633 3.207-5.965l-.681-2.532 2.6-.707.632 2.346c.977-.218 1.806-.305 2.517-.306.869-.004 1.577.703 1.587 1.576.013.903-.723 1.637-1.621 1.617-.675-.016-1.485.047-2.422.301-1.725.469-2.081 1.367-1.88 2.113.237.879 1.316 1.187 3.801 1.427 3.462.261 5.13 1.383 5.776 3.781.639 2.373-.488 4.852-3.397 6.215l.733 2.72-2.602.706z" clip-rule="evenodd"/>
    <path fill="#DDE8FE" fill-rule="evenodd" d="M250.717 177.443c5.916 8.465 3.878 20.144-4.551 26.086-8.43 5.941-20.059 3.894-25.975-4.571-5.916-8.466-3.878-20.145 4.552-26.086 8.429-5.942 20.058-3.895 25.974 4.571z" clip-rule="evenodd"/>
    <path fill="#92B5F9" fill-rule="evenodd" d="M248.263 179.174c4.964 7.104 3.253 16.904-3.819 21.89-7.074 4.985-16.832 3.267-21.796-3.835-4.965-7.105-3.255-16.905 3.819-21.891 7.072-4.985 16.832-3.269 21.796 3.836z" clip-rule="evenodd"/>
    <path fill="#fff" fill-rule="evenodd" d="M237.261 199.255l-.683-2.533c-1.152.258-2.328.346-3.33.294-.837-.044-1.496-.732-1.508-1.574v-.101c-.013-.927.761-1.676 1.684-1.614.939.061 1.973-.002 3.013-.285 1.513-.411 2.389-1.279 2.102-2.344-.273-1.014-1.294-1.423-3.438-1.556-3.097-.188-5.394-.994-6.09-3.58-.632-2.345.519-4.632 3.206-5.963l-.68-2.533 2.601-.707.631 2.346c.976-.218 1.806-.305 2.517-.306.869-.004 1.576.703 1.587 1.575.013.904-.724 1.638-1.621 1.618-.674-.016-1.485.047-2.422.301-1.726.469-2.081 1.367-1.88 2.113.237.878 1.316 1.187 3.803 1.427 3.459.261 5.127 1.383 5.774 3.781.639 2.373-.489 4.852-3.397 6.215l.732 2.719-2.601.707z" clip-rule="evenodd"/>
    <path fill="#DDE8FE" fill-rule="evenodd" d="M217.861 164.756c0 10.342-8.349 18.727-18.647 18.727-10.297 0-18.646-8.385-18.646-18.727 0-10.343 8.349-18.728 18.646-18.728 10.298 0 18.647 8.385 18.647 18.728z" clip-rule="evenodd"/>
    <path fill="#92B5F9" fill-rule="evenodd" d="M214.861 164.756c0 8.678-7.004 15.714-15.647 15.714-8.642 0-15.646-7.036-15.646-15.714 0-8.679 7.004-15.715 15.646-15.715 8.643 0 15.647 7.036 15.647 15.715z" clip-rule="evenodd"/>
    <path fill="#fff" fill-rule="evenodd" d="M194.37 174.846l.89-2.467c-1.092-.454-2.104-1.06-2.894-1.68-.661-.52-.806-1.464-.334-2.159l.057-.084c.521-.765 1.582-.931 2.302-.35.733.593 1.618 1.138 2.629 1.507 1.474.536 2.687.332 3.063-.707.355-.986-.246-1.911-1.925-3.256-2.429-1.942-3.848-3.927-2.937-6.445.824-2.284 3.073-3.492 6.036-3.031l.89-2.466 2.534.923-.824 2.284c.924.385 1.65.792 2.235 1.201.713.5.887 1.486.397 2.206-.507.746-1.528.923-2.252.387-.544-.4-1.242-.817-2.154-1.15-1.681-.611-2.487-.081-2.749.645-.309.857.398 1.731 2.296 3.361 2.683 2.211 3.408 4.092 2.564 6.427-.833 2.312-3.174 3.691-6.334 3.128l-.957 2.647-2.533-.921z" clip-rule="evenodd"/>
    <path fill="#FB9390" fill-rule="evenodd" d="M179.048 221.01h84.453v-45.455h-84.453v45.455z" clip-rule="evenodd"/>
    <path fill="#E8605D" fill-rule="evenodd" d="M221.192 208.3c0 2.275 1.754 4.122 3.917 4.122h-6.329c-2.163 0-3.919 1.844-3.919 4.12s1.756 4.12 3.919 4.12h1.097c-.56 0-1.093.126-1.574.348h45.198v-16.83h-38.392c-2.163 0-3.917 1.844-3.917 4.12z" clip-rule="evenodd"/>
    <path fill="#7C9AF2" fill-rule="evenodd" d="M274.417 228.904h-50.408c-2.022 0-3.661-1.646-3.661-3.676 0-2.032 1.639-3.679 3.661-3.679h50.408c2.022 0 3.661 1.647 3.661 3.679 0 2.03-1.639 3.676-3.661 3.676z" clip-rule="evenodd"/>
    <path fill="#BED1F9" fill-rule="evenodd" d="M273.392 221.549h-50.407c-2.023 0-3.662-1.646-3.662-3.678 0-2.03 1.639-3.677 3.662-3.677h50.407c2.022 0 3.661 1.647 3.661 3.677 0 2.032-1.639 3.678-3.661 3.678z" clip-rule="evenodd"/>
    <path fill="#7C9AF2" fill-rule="evenodd" d="M279.306 214.194h-50.407c-2.021 0-3.662-1.648-3.662-3.678 0-2.032 1.641-3.679 3.662-3.679h50.407c2.023 0 3.663 1.647 3.663 3.679 0 2.03-1.64 3.678-3.663 3.678z" clip-rule="evenodd"/>
    <path fill="#4951EC" fill-rule="evenodd" d="M215.193 54.93l.641 4.358-6.866 1.81.155 6.487-4.918 2.2 1.108 2.5 6.578-2.94-.147-6.149 7.144-1.883-.966-6.557-2.729.174z" clip-rule="evenodd"/>
    <path fill="#BED1F9" fill-rule="evenodd" d="M150.252 41.136l1.324-3.299c-1.457-.667-2.8-1.536-3.842-2.416-.87-.734-1.022-2.02-.349-2.938l.081-.111c.742-1.013 2.188-1.186 3.135-.364.965.837 2.137 1.619 3.49 2.166 1.97.797 3.625.58 4.182-.81.529-1.318-.243-2.6-2.453-4.502-3.197-2.747-5.024-5.504-3.673-8.872 1.226-3.055 4.33-4.583 8.321-3.815l1.324-3.298 3.388 1.37-1.227 3.056c1.236.565 2.2 1.152 2.972 1.734.942.71 1.133 2.054.434 3.007-.721.986-2.115 1.177-3.07.417-.716-.57-1.643-1.168-2.864-1.662-2.246-.909-3.362-.23-3.752.742-.46 1.145.458 2.364 2.95 4.664 3.528 3.123 4.422 5.704 3.169 8.828-1.241 3.09-4.478 4.847-8.731 3.932l-1.421 3.542-3.388-1.371z" clip-rule="evenodd"/>
    <path fill="#DDE8FE" fill-rule="evenodd" d="M156.513 76.33c.345.562.246 1.292-.237 1.74-.948.88-2.458 1.91-4.297 2.603-2.69 1.014-5.676 1.112-8.366-.115-1.682-.767-3.221-2.148-4.306-3.934l-1.59.6c-.54.203-1.142-.072-1.345-.614l-.016-.042c-.202-.542.071-1.147.611-1.35l1.305-.492c-.21-.435-.357-.706-.449-.952-.153-.409-.296-.916-.413-1.478l-1.345.506c-.54.204-1.142-.07-1.345-.613-.203-.543.07-1.148.611-1.351l1.63-.615c-.256-2.052.014-4.068.778-5.757 1.298-2.87 3.743-4.913 6.555-5.973 1.64-.618 2.988-.8 4.079-.812.758-.008 1.387.587 1.423 1.348l.001.024c.037.789-.576 1.45-1.362 1.481-.893.036-1.949.215-3.172.676-1.793.676-3.372 1.925-4.278 3.854-.51 1.126-.749 2.477-.478 3.823l9.17-3.457c.541-.204 1.143.071 1.345.614.203.542-.071 1.147-.611 1.35l-9.577 3.611c.127.466.254.931.361 1.218.138.368.276.737.5 1.212l9.599-3.618c.551-.207 1.166.073 1.373.627.207.554-.072 1.171-.624 1.38l-9.191 3.464c.729 1.079 1.682 1.887 2.691 2.347 2.003.88 3.847.839 5.885.07 1.242-.468 2.275-1.11 3.061-1.732.645-.512 1.591-.346 2.024.357z" clip-rule="evenodd"/>
    <path fill="#4951EC" fill-rule="evenodd" d="M131.476 43.501l-4.164.424-1.42-6.652-6.164-.134-1.873-4.804-2.421.952 2.505 6.426 5.841.126 1.478 6.921 6.265-.639-.047-2.62z" clip-rule="evenodd"/>
    <path fill="#FA7167" fill-rule="evenodd" d="M179.593 38.526L184.048 40s7.063-2.298 7.76-3.744c.694-1.445.892-4.953 1.896-5.049 1.005-.095 2.948.233 3.409 2.633.336 1.743-2.205 6.78-1.808 7.316.248.335 2.785 1.257 4.648 1.9 1.225.423 2.11 1.506 2.299 2.813v.004c.127.883-.372 1.743-1.194 2.062l-1.282.497.409 1.33c.303.989-.235 2.052-1.208 2.38l-.991.333.316.81c.409 1.042-.167 2.225-1.234 2.536l-.865.253.036.233c.149.967-.455 1.898-1.39 2.144l-.86.227-11.864-3.933c-1.111-.368-2.135-.965-3.007-1.753l-3.94-2.089c-.423-.224-.619-.732-.459-1.194l3.653-10.564c.176-.51.72-.786 1.221-.62zM109.127 85.848l.943-4.695 4.385-1.881c.5-.214.538-.91.065-1.178l-4.155-2.352-.426-4.77c-.049-.544-.696-.796-1.096-.426l-3.511 3.241-4.649-1.067c-.53-.121-.968.42-.742.916l1.985 4.355-2.448 4.11c-.278.469.099 1.055.638.992l4.738-.55 3.137 3.608c.357.411 1.028.232 1.136-.303z" clip-rule="evenodd"/>
    <path fill="#FB9390" fill-rule="evenodd" d="M51.896 201.167s-5.846 4.232-6.766 5.494c-1.326 1.819 9.903 5.22 8.678 3.09-.282-.488-1.09-2.136-1.126-2.299-.188-.867 2.194-3.202 2.194-3.202l-2.98-3.083z" clip-rule="evenodd"/>
    <path fill="#0B0754" fill-rule="evenodd" d="M56.845 213.311l-3.97-5.633s-2.477-.579-5.02-3.453c0 0-2.287.876-3.693 2.777 0 0 2.657 2.876 6.75 6.112 0 0 2.428 2.159 5.782 3.296 3.355 1.138.151-3.099.151-3.099z" clip-rule="evenodd"/>
    <path fill="#FB9390" fill-rule="evenodd" d="M3.046 124.03s.719.638.973.831c.298.229 1.241.844 1.241.844s3.412 1.949 3.528 1.691c.116-.256.11-.995-.058-1.19-.169-.195-.66-.395-.829-.59-.168-.194-.226-.587-.01-.804.218-.218 1.384.422 1.384.422s.944.527 1.339 1.163c1.368 2.205.953 2.333 1.136 2.611.217.33 5.002 2.512 5.002 2.512s14.307 5.972 15.078 6.298h.01c.104.666-.25 1.279-.433 1.867-.342 2.053-.95 2.189-1.414 4.168-2.195-1.114-17.384-9.518-18.929-10.395 0 0-2.313-.396-3.759-.692-1.445-.298-2.705-1.215-3.101-1.361-.059-.022-1.352-.583-2.774-1.69-1.226-.954.356-.593.356-.593s2.576 1.37 2.643 1.154c.052-.168-1.397-.837-2.764-1.877-.35-.269-.697-.534-1.013-.781-.829-.647-.684-1.327.288-.784.343.192.905.524 1.274.816.4.316.864.48 1.238.696.743.428 1.28.749 1.28.709 0-.05.204-.068-.16-.364-.439-.355-1.53-.911-2.136-1.481-.344-.324-1.1-.959-1.1-.959s-.973-1.167-.925-1.244c.257-.418 1.14.198 1.55.698.421.189 1.2.878 1.2.878s1.877 1.053 2.021.795c.062-.11-1.016-.891-1.958-1.817-.875-.861-1.622-1.867-1.483-2.06.236-.328 1.305.529 1.305.529z" clip-rule="evenodd"/>
    <path fill="#E8605D" fill-rule="evenodd" d="M42.956 157.667l.925 4.591 23.243 21.234-16.637 16.91 4.492 4.611s24.573-18.122 25.459-20.497c1.363-3.656-17.615-27.875-17.615-27.875l-19.867 1.026z" clip-rule="evenodd"/>
    <path fill="#FB9390" fill-rule="evenodd" d="M26.838 213.203s-4.689 5.131-5.61 6.394c-1.326 1.819 8.576 4.504 7.351 2.374-.282-.49-1.09-2.138-1.125-2.3-.188-.866 2.193-3.201 2.193-3.201l-2.809-3.267z" clip-rule="evenodd"/>
    <path fill="#0B0754" fill-rule="evenodd" d="M33.8 221.807l-6.455-2.367s-2.439 1.112-6.158.2c0 0-1.312 1.852-1.395 4.217 0 0 12.233 1.567 15.637.588s-1.63-2.638-1.63-2.638z" clip-rule="evenodd"/>
    <path fill="#FA7167" fill-rule="evenodd" d="M43.751 159.795l1.044 28.973-20.624 25.396 5.58 3.069s22.814-19.665 25.32-25.143c1.553-3.399 6.78-34.111 6.78-34.111l-18.1 1.816z" clip-rule="evenodd"/>
    <path fill="#DDE8FE" fill-rule="evenodd" d="M62.5 157.417c-1.89-4.285-1.672-35.003-9.029-42.199-2.588.44-4.435.685-4.867.8-.384 3.165-.806 14.775-1.065 25.419-.173 7.088.005 14.525-.864 18.445-.54 2.429 17.552 1.449 15.825-2.465z" clip-rule="evenodd"/>
    <path fill="#4951EC" fill-rule="evenodd" d="M42.585 117.603c-2.065.473-3.586.804-6.293 4.822-2.592 3.844-8.346 12.968-8.346 12.968l-15.157-6.762-.709 7.711s17.147 8.95 19.566 8.144c2.42-.807 9.221-10.791 9.724-11.466.118-.159-.57 10.664-.57 12.393 0 1.729-3.288 16.786-3.288 16.786s8.341 2.061 9.969-1.684c4.991-11.483 1.16-44.508 1.16-44.508s-4.57 1.255-6.056 1.596z" clip-rule="evenodd"/>
    <path fill="#FB9390" fill-rule="evenodd" d="M73.718 84.727c-.637-.536-.915-1.82-1.02-2.646l-.284-1.094c.259-.106 5.313-.829 6.838-.868.148.484.222.894.175 1.154-.227 1.252-1.818 9.376-1.818 9.376l-4.353.087s.947-4.817.462-6.01z" clip-rule="evenodd"/>
    <path fill="#4951EC" fill-rule="evenodd" d="M55.176 117.017s2.987 8.535 5.445 7.305c2.458-1.23 16.266-15.367 16.403-16.05.136-.683 1.092-18.037 1.092-18.037l-5.462-1.093-3.14 14.211s-10.105 9.701-12.153 10.657c-2.048.957-2.184 3.007-2.184 3.007z" clip-rule="evenodd"/>
    <path fill="#4951EC" fill-rule="evenodd" d="M63.24 159.471c1.653 0 2.263-.229 3.364-.563 0 0-3.148-17.822-4.979-35.495-.723-6.982-1.394-9.843-4.262-9.339-.83.147-3.076 1.005-3.892 1.144 7.207 20.478 7.232 36.241 8.253 40.812.512 2.294.958 3.455 1.515 3.441z" clip-rule="evenodd"/>
    <path fill="#F7A491" fill-rule="evenodd" d="M52.71 112.123l.756 3.095s.172 2.694-1.073 2.935c-1.501.292-3.732-1.963-3.732-1.963l-1.293-8.726 5.343 4.659z" clip-rule="evenodd"/>
    <path fill="#FB9390" fill-rule="evenodd" d="M52.71 112.123l.756 3.095s.172 2.694-1.073 2.935c-1.501.292-3.732-1.963-3.732-1.963l-1.293-8.726 5.343 4.659z" clip-rule="evenodd"/>
    <path fill="#EF7F7F" fill-rule="evenodd" d="M47.381 107.504l5.33 4.619.564 2.312c-2.037-.492-4.942-2.743-5.894-6.931z" clip-rule="evenodd"/>
    <path fill="#FB9390" fill-rule="evenodd" d="M52.729 99.476c1.289-.004 2.449.894 2.902 2.186.376 1.071.857 2.657 1.163 4.479.564 3.355-1.339 6.428-2.995 6.673-1.655.245-5.599-.856-6.47-5.61-.375-2.037-.866-4.709.802-6.114 1.298-1.092 3.117-1.61 4.598-1.614z" clip-rule="evenodd"/>
    <path fill="#0B0754" fill-rule="evenodd" d="M47.866 110.827s-5.836-5.224-6.09-9.304c-.256-4.081 3.497-6.267 6.706-6.38 1.45-.052 2.43.013 3.927.203 3.215.407 5.298 1.838 4.565 4.483-.985 3.551-7.657.555-9.021 1.658-1.126.91.7 3.097-.395 3.932-1.028.785-.504.518-.164 2.011.34 1.491.472 3.397.472 3.397z" clip-rule="evenodd"/>
    <path fill="#FB9390" fill-rule="evenodd" d="M45.616 106.094c.145.979.74 1.7 1.33 1.614.589-.089.95-.953.805-1.93-.145-.977-.74-1.698-1.33-1.612-.59.087-.95.95-.805 1.928z" clip-rule="evenodd"/>
    <path fill="#EF7F7F" fill-rule="evenodd" d="M74.014 80.974s.945.539 1.885 1.79c0 0 2.46-1.585 2.374-2.087-.114-.666-2.63.57-2.63.57l-1.63-.273z" clip-rule="evenodd"/>
    <path fill="#92B5F9" fill-rule="evenodd" d="M10.552 48.158l66.454 34.364c3.576 1.849 8.097.184 10.098-3.718l16.971-33.101c2.001-3.903.724-8.566-2.852-10.415L34.768.924C31.192-.925 26.671.74 24.67 4.642L7.7 37.743c-2 3.903-.724 8.566 2.852 10.415z" clip-rule="evenodd"/>
    <path fill="#0B0754" fill-rule="evenodd" d="M87.486 78.06L8.082 37l5.148-10.043 79.404 41.061-5.148 10.042z" clip-rule="evenodd"/>
    <path fill="#DDE8FE" fill-rule="evenodd" d="M45.95 24.467l-17.498-9.068L33.46 5.65l17.499 9.068-5.008 9.748z" clip-rule="evenodd"/>
    <path fill="#FB9390" fill-rule="evenodd" d="M73.995 80.922c-.116-.314-.343-.752-.231-.924.708-1.088-.056-2.27-.571-1.345-.3.537-.823 1.72-.779 2.334.032.445.482 2.143.482 2.143s1.755-.429 1.099-2.208zM274.185 195.272s-.409 5.116-.077 6.778c.178.891 1.167 2.723.713 3.561-.454.839-.973 1.048-.973 1.048l-11.766.186c-.641.01-.219-.397.298-.772.846-.615 1.53-1.021 4.232-2.312.176-.083.817-.487 1.049-.625.587-.356 1.176-.911 1.682-1.47.846-.929.919-5.435.919-5.435l3.923-.959z" clip-rule="evenodd"/>
    <path fill="#0B0754" fill-rule="evenodd" d="M264.988 127.266s-5.058-2.504-4.085 2.941c.973 5.446 8.383 66.688 8.383 66.688l6.941.388s.887-20.419.693-23.351c-.196-2.932-1.345-7.469-1.345-7.469l-.589-18.114-6.548-22.365-3.45 1.282zM267.663 203.134c3.111.788 5.411.252 6.699-.26.332.929.772 2.094.538 2.766-.285.822-.659 1.188-1.018 1.197-2.842.074-10.446-.005-12.613.024-.303.004-.47-.346-.275-.575.537-.635 6.437-3.012 6.669-3.152z" clip-rule="evenodd"/>
    <path fill="#FB9390" fill-rule="evenodd" d="M260.903 90.46s-4.275-8.263-4.939-11.297c-.663-3.033-2.961-18.31-2.767-19.293.194-.984 3.826-3.351 3.379-4.187-.449-.836-3.909-.838-4.702-.766-.792.072-2.385.535-3.065 1.1-.682.564.765 18.871 1.197 22.812.433 3.942 5.746 16.08 5.746 16.08l5.151-4.45zM294.221 154.858s3.526-3.714 4.312-5.215c.42-.804.801-2.854 1.679-3.216.878-.365 1.413-.199 1.413-.199l9.256 7.301c.504.397-.081.446-.719.409-1.041-.057-1.826-.174-4.734-.881-.191-.047-.941-.139-1.209-.177-.676-.097-1.484-.038-2.228.076-1.239.185-4.122 3.639-4.122 3.639l-3.648-1.737z" clip-rule="evenodd"/>
    <path fill="#0B0754" fill-rule="evenodd" d="M304.218 152.88c-1.922-2.582-4.046-3.621-5.365-4.037.325-.932.678-2.15 1.282-2.525.738-.458 1.248-.362 1.533-.142 2.253 1.742 8.151 6.506 9.852 7.854.238.19.149.567-.148.621-.815.153-6.887-1.733-7.154-1.771zM294.303 87.943c-2.196-4.624-7.059-7.17-11.771-5.938-1.689-2.297-4.305-3.904-7.025-4.292-5.367-.764-12.29 1.85-11.584 7.477-1.695 3.935-1.28 9.357 2.107 12.015-.623 5.172 4.541 9.76 10.653 9.141 2.46 3.41 6.734 5.408 10.733 4.631.959-.188 2.417-.539 2.666-.496-.312-.034 6.972 4.757 11.995-3.774 5.126-8.706.079-18.437-7.774-18.764z" clip-rule="evenodd"/>
    <path fill="#4951EC" fill-rule="evenodd" d="M262.951 129.239s11.344-5.065 11.522-4.488c1.422 4.6 5.846 3.116 8.472 11.219 1.101 3.392 2.23 25.96 2.23 25.96s4.473-3.727 10.864-10.24c.491-.5 5.295 4.09 5.295 4.09-12.686 17.214-18.159 18.112-20.276 17.147-4.418-2.01-13.744-30.154-13.728-30.152-1.12-2.191-4.379-13.536-4.379-13.536z" clip-rule="evenodd"/>
    <path fill="#FB9390" fill-rule="evenodd" d="M281.757 97.446s16.394-.02 19.904-.224c3.176-.184 15.776.138 16.27.08.492-.056 3.749-5.596 4.291-5.002.541.595-1.813 2.747-1.084 3.306.727.558 8.548-.692 8.444-.112-.196 1.087-4.758.948-4.753 1.472.006.525 4.776-.294 5.099.577.323.87-4.589.355-4.785.744-.195.388 4.555 1.1 4.071 1.91-.266.439-4.211-.735-4.193-.136.02.6 2.9 1.964 2.546 2.441-.353.478-2.26-1.465-3.93-1.489-1.672-.024-2.867-.9-5.533-.165-1.318.363-11.371 1.596-19.865 2.326-8.708.747-15.845.985-15.845.985l-.637-6.713z" clip-rule="evenodd"/>
    <path fill="#92B5F9" fill-rule="evenodd" d="M257.447 109.087c-.218-2.643.3-4.679.418-5.557-.795-2.746-2.49-8.605-3.099-9.756 0 0 2.855-5.509 5.776-5.471 0 0 2.984 6.755 5.291 7.964.034-.009.817.35 1.162.348 2.226-.016 10.011-.253 11.464-.28l-.817 11.091c-5.642 11.106-4.114 16.934-1.968 19.088 1.009 1.014-14.076 5.129-14.771 3.693-.819-1.693-3.018-15.776-3.456-21.12z" clip-rule="evenodd"/>
    <path fill="#92B5F9" fill-rule="evenodd" d="M274.503 96.755c1.437-.69 11.827-.344 11.827-.344s1.452 7.266.28 9.014c0 0-9.291 1.388-9.027 2.153l-3.08-10.823z" clip-rule="evenodd"/>
    <path fill="#FB9390" fill-rule="evenodd" d="M271.78 92.085s-.182 3.963.003 5.614c.185 1.65-1.687 5.521-5.171 5.587-3.483.069-.511-3.712-.206-5.337.305-1.624.671-7.983.671-7.983l4.703 2.119z" clip-rule="evenodd"/>
    <path fill="#EF7F7F" fill-rule="evenodd" d="M267.078 89.966s-.085 1.476-.207 3.187c1.099 1.317 2.787 1.99 4.84 1.188.022-1.227.069-2.256.069-2.256l-4.702-2.119z" clip-rule="evenodd"/>
    <path fill="#FB9390" fill-rule="evenodd" d="M272.068 80.275s1.974.593 3.08 2.574c1.107 1.982 1.572 7.623-2.681 9.947-4.253 2.323-7.169-1.582-6.975-5.18.194-3.599 1.291-8.344 6.576-7.34z" clip-rule="evenodd"/>
    <path fill="#FB9390" fill-rule="evenodd" d="M264.636 86.426c.289.891.942 1.477 1.459 1.309.517-.169.702-1.028.413-1.92-.287-.891-.941-1.477-1.458-1.308-.517.168-.702 1.027-.414 1.919z" clip-rule="evenodd"/>
    <path fill="#0B0754" fill-rule="evenodd" d="M271.475 80.116s2.16 5.931 4.37 6.6c2.208.67 1.976 3.563 1.976 3.563s.41-6.69-1.589-8.37c-1.998-1.679-4.757-1.793-4.757-1.793z" clip-rule="evenodd"/>
    <path fill="#FB9390" fill-rule="evenodd" d="M274.87 87.85c-.36.915-.151 1.853.463 2.098.616.244 1.406-.3 1.765-1.214.359-.914.152-1.852-.464-2.096-.614-.245-1.404.298-1.764 1.212z" clip-rule="evenodd"/>
    <path fill="#EF7F7F" fill-rule="evenodd" d="M248.191 57.426s4.803.211 5.367.211c.564 0 2.205-1.704 2.205-1.704l-7.572 1.493z" clip-rule="evenodd"/>
    <path fill="#DDE8FE" fill-rule="evenodd" d="M263.912 28.15c5.916 8.466 3.878 20.146-4.551 26.087-8.43 5.941-20.059 3.895-25.975-4.57-5.916-8.466-3.878-20.146 4.55-26.087 8.429-5.941 20.06-3.895 25.976 4.57z" clip-rule="evenodd"/>
    <path fill="#92B5F9" fill-rule="evenodd" d="M261.456 29.881c4.964 7.104 3.255 16.904-3.819 21.89-7.074 4.986-16.832 3.269-21.796-3.835-4.965-7.104-3.256-16.904 3.818-21.89 7.074-4.986 16.833-3.269 21.797 3.835z" clip-rule="evenodd"/>
    <path fill="#fff" fill-rule="evenodd" d="M250.455 49.962l-.682-2.532c-1.153.258-2.329.346-3.332.294-.837-.044-1.496-.732-1.507-1.574l-.001-.102c-.013-.927.763-1.675 1.684-1.614.939.062 1.975-.002 3.014-.284 1.512-.41 2.39-1.279 2.103-2.345-.273-1.013-1.295-1.422-3.439-1.555-3.098-.188-5.395-.995-6.091-3.58-.632-2.346.518-4.633 3.208-5.964l-.682-2.532 2.601-.706.632 2.345c.977-.219 1.805-.304 2.516-.306.87-.004 1.578.703 1.589 1.576.01.902-.724 1.637-1.623 1.617-.674-.016-1.485.046-2.421.3-1.725.47-2.082 1.367-1.881 2.114.237.88 1.316 1.187 3.802 1.427 3.46.262 5.13 1.382 5.776 3.78.638 2.373-.488 4.854-3.397 6.216l.731 2.719-2.6.706z" clip-rule="evenodd"/>
    <path fill="#FB9390" fill-rule="evenodd" d="M253.558 57.637l1.984-1.79s-.937-1.123-.548-1.34c.632-.35 1.715 1.007 1.62 1.337-.097.33-1.261 1.393-1.261 1.393l-1.795.4z" clip-rule="evenodd"/>
</svg>
