<?xml version="1.0" encoding="UTF-8"?>
<svg width="592px" height="43px" viewBox="0 0 592 43" version="1.1" xmlns="http://www.w3.org/2000/svg" xmlns:xlink="http://www.w3.org/1999/xlink">
    <title>Group 3</title>
    <defs>
        <path d="M450.508222,43 C453.218742,43 455.455495,42.333993 457.218481,41.0019789 C458.981467,39.6699648 460.241973,37.6319261 461,34.8878628 L456.055599,33.3271768 C455.630645,35.1679859 454.930044,36.5171504 453.953798,37.3746702 C452.977552,38.23219 451.811798,38.6609499 450.456539,38.6609499 C448.618898,38.6609499 447.125816,37.9863676 445.977291,36.6372032 C444.828765,35.2880387 444.254503,33.0241865 444.254503,29.8456464 C444.254503,26.850044 444.837379,24.6833773 446.003132,23.3456464 C447.168885,22.0079156 448.68781,21.3390501 450.559906,21.3390501 C451.915166,21.3390501 453.066562,21.7163588 454.014096,22.4709763 C454.961629,23.2255937 455.584704,24.2546174 455.88332,25.5580475 L460.931088,24.3575198 C460.356826,22.3452067 459.495432,20.8016711 458.346907,19.7269129 C456.417384,17.908971 453.907857,17 450.818324,17 C447.280867,17 444.426782,18.1576517 442.256069,20.4729551 C440.085356,22.7882586 439,26.0382586 439,30.2229551 C439,34.1789798 440.079614,37.2974934 442.238841,39.578496 C444.398068,41.8594987 447.154529,43 450.508222,43 Z M473.517336,43 C476.24483,43 478.507147,42.0956456 480.304288,40.2869369 C482.101429,38.4782282 483,36.1987988 483,33.4486486 C483,30.7213213 482.110097,28.4647147 480.330292,26.6788288 C478.550487,24.8929429 476.267944,24 473.482664,24 C471.679745,24 470.047293,24.3936937 468.58531,25.1810811 C467.123327,25.9684685 465.993613,27.1096096 465.196168,28.6045045 C464.398723,30.0993994 464,31.6456456 464,33.2432432 C464,35.3315315 464.398723,37.1031532 465.196168,38.5581081 C465.993613,40.0130631 467.157999,41.1171171 468.689325,41.8702703 C470.220651,42.6234234 471.829988,43 473.517336,43 Z M473.508671,39 C472.236994,39 471.16763,38.4846626 470.300578,37.4539877 C469.433526,36.4233129 469,34.9386503 469,33 C469,31.0613497 469.433526,29.5766871 470.300578,28.5460123 C471.16763,27.5153374 472.236994,27 473.508671,27 C474.780347,27 475.846821,27.5153374 476.708092,28.5460123 C477.569364,29.5766871 478,31.0490798 478,32.9631902 C478,34.9263804 477.569364,36.4233129 476.708092,37.4539877 C475.846821,38.4846626 474.780347,39 473.508671,39 Z M496.508222,43 C499.218742,43 501.455495,42.333993 503.218481,41.0019789 C504.981467,39.6699648 506.241973,37.6319261 507,34.8878628 L502.055599,33.3271768 C501.630645,35.1679859 500.930044,36.5171504 499.953798,37.3746702 C498.977552,38.23219 497.811798,38.6609499 496.456539,38.6609499 C494.618898,38.6609499 493.125816,37.9863676 491.977291,36.6372032 C490.828765,35.2880387 490.254503,33.0241865 490.254503,29.8456464 C490.254503,26.850044 490.837379,24.6833773 492.003132,23.3456464 C493.168885,22.0079156 494.68781,21.3390501 496.559906,21.3390501 C497.915166,21.3390501 499.066562,21.7163588 500.014096,22.4709763 C500.961629,23.2255937 501.584704,24.2546174 501.88332,25.5580475 L506.931088,24.3575198 C506.356826,22.3452067 505.495432,20.8016711 504.346907,19.7269129 C502.417384,17.908971 499.907857,17 496.818324,17 C493.280867,17 490.426782,18.1576517 488.256069,20.4729551 C486.085356,22.7882586 485,26.0382586 485,30.2229551 C485,34.1789798 486.079614,37.2974934 488.238841,39.578496 C490.398068,41.8594987 493.154529,43 496.508222,43 Z M516.901163,42 L516.901163,36.5635359 C516.901163,33.5690608 517.037791,31.6022099 517.311047,30.6629834 C517.584302,29.7237569 517.959302,29.0745856 518.436047,28.7154696 C518.912791,28.3563536 519.494186,28.1767956 520.180233,28.1767956 C520.889535,28.1767956 521.656977,28.4309392 522.482558,28.9392265 L524,24.878453 C522.965116,24.2928177 521.889535,24 520.773256,24 C519.982558,24 519.276163,24.1878453 518.65407,24.5635359 C518.031977,24.9392265 517.331395,25.718232 516.552326,26.9005525 L516.552326,24.3977901 L512,24.3977901 L512,42 L516.901163,42 Z M532.823366,43 C534.822186,43 536.486918,42.5406907 537.817562,41.6220721 C539.148205,40.7034535 540.121917,39.3654655 540.738696,37.6081081 L535.941526,36.8036036 C535.678824,37.7165165 535.290481,38.3783784 534.776499,38.7891892 C534.262517,39.2 533.628605,39.4054054 532.874764,39.4054054 C531.766846,39.4054054 530.841678,39.0088589 530.099259,38.2157658 C529.356839,37.4226727 528.968497,36.3129129 528.934232,34.8864865 L540.995687,34.8864865 C541.064218,31.2006006 540.316088,28.4647147 538.751297,26.6788288 C537.186506,24.8929429 535.050623,24 532.343649,24 C529.933642,24 527.940532,24.853003 526.364319,26.559009 C524.788106,28.265015 524,30.6243243 524,33.6369369 C524,36.1588589 524.599646,38.2471471 525.798939,39.9018018 C527.318042,41.9672673 529.659518,43 532.823366,43 Z M529.000273,32 C528.989163,30.768407 529.316928,29.793842 529.983568,29.0763052 C530.650209,28.3587684 531.49462,28 532.516803,28 C533.472321,28 534.2834,28.3400268 534.950041,29.0200803 C535.616682,29.7001339 535.966668,30.6934404 536,32 L529.000273,32 Z M550.019057,43 C551.076229,43 552.070879,42.8003003 553.003009,42.4009009 C553.935139,42.0015015 554.810431,41.4024024 555.628887,40.6036036 C555.662989,40.6948949 555.719826,40.8831832 555.799398,41.1684685 C555.981277,41.7960961 556.134738,42.2696697 556.259779,42.5891892 L561,42.5891892 C560.579405,41.7219219 560.292377,40.9088589 560.138917,40.15 C559.985456,39.3911411 559.908726,38.2129129 559.908726,36.6153153 L559.95988,31.0009009 C559.95988,28.9126126 559.74674,27.4776276 559.320461,26.6959459 C558.894183,25.9142643 558.158141,25.2695195 557.112337,24.7617117 C556.066533,24.2539039 554.475092,24 552.338014,24 C549.984955,24 548.211635,24.4222222 547.018054,25.2666667 C545.824473,26.1111111 544.983283,27.412012 544.494483,29.1693694 L548.842528,29.9567568 C549.138081,29.1123123 549.524574,28.5217718 550.002006,28.1851351 C550.479438,27.8484985 551.144433,27.6801802 551.996991,27.6801802 C553.258776,27.6801802 554.117018,27.877027 554.571715,28.2707207 C555.026413,28.6644144 555.253761,29.3234234 555.253761,30.2477477 L555.253761,30.727027 C554.389836,31.0921922 552.838181,31.4858859 550.598796,31.9081081 C548.939151,32.2276276 547.66884,32.6013514 546.787864,33.0292793 C545.906887,33.4572072 545.221999,34.0734234 544.7332,34.8779279 C544.2444,35.6824324 544,36.5981982 544,37.6252252 C544,39.1771772 544.537111,40.460961 545.611334,41.4765766 C546.685557,42.4921922 548.154798,43 550.019057,43 Z M551.881266,39 C551.043975,39 550.354442,38.7440476 549.812665,38.2321429 C549.270888,37.7202381 549,37.1130952 549,36.4107143 C549,35.6964286 549.33861,35.1071429 550.015831,34.6428571 C550.459103,34.3571429 551.401055,34.0654762 552.841689,33.7678571 C554.282322,33.4702381 555.335092,33.2142857 556,33 L556,34 C556,35.202381 555.932278,36.0178571 555.796834,36.4464286 C555.599824,37.1011905 555.187335,37.6547619 554.559367,38.1071429 C553.709763,38.702381 552.817062,39 551.881266,39 Z M570.099042,43 C571.551651,43 572.85197,42.7604381 574,42.2813142 L573.578275,38.5509925 C572.711395,38.8590007 572.049521,39.0130048 571.592652,39.0130048 C571.264643,39.0130048 570.986422,38.9331508 570.757987,38.7734428 C570.529553,38.6137349 570.38312,38.411248 570.31869,38.1659822 C570.25426,37.9207164 570.222045,37.0565822 570.222045,35.5735797 L570.222045,28.2498289 L573.595847,28.2498289 L573.595847,24.4168378 L570.222045,24.4168378 L570.222045,18 L565.266773,20.8062971 L565.266773,24.4168378 L563,24.4168378 L563,28.2498289 L565.266773,28.2498289 L565.267169,36.4231691 C565.272177,37.983744 565.32476,39.029546 565.42492,39.5605749 C565.553781,40.347707 565.785144,40.9722793 566.11901,41.4342916 C566.452875,41.8963039 566.977103,42.2727584 567.691693,42.563655 C568.406283,42.8545517 569.208733,43 570.099042,43 Z M583.823366,43 C585.822186,43 587.486918,42.5406907 588.817562,41.6220721 C590.148205,40.7034535 591.121917,39.3654655 591.738696,37.6081081 L586.941526,36.8036036 C586.678824,37.7165165 586.290481,38.3783784 585.776499,38.7891892 C585.262517,39.2 584.628605,39.4054054 583.874764,39.4054054 C582.766846,39.4054054 581.841678,39.0088589 581.099259,38.2157658 C580.356839,37.4226727 579.968497,36.3129129 579.934232,34.8864865 L591.995687,34.8864865 C592.064218,31.2006006 591.316088,28.4647147 589.751297,26.6788288 C588.186506,24.8929429 586.050623,24 583.343649,24 C580.933642,24 578.940532,24.853003 577.364319,26.559009 C575.788106,28.265015 575,30.6243243 575,33.6369369 C575,36.1588589 575.599646,38.2471471 576.798939,39.9018018 C578.318042,41.9672673 580.659518,43 583.823366,43 Z M580.000273,32 C579.989163,30.768407 580.316928,29.793842 580.983568,29.0763052 C581.650209,28.3587684 582.49462,28 583.516803,28 C584.472321,28 585.2834,28.3400268 585.950041,29.0200803 C586.616682,29.7001339 586.966668,30.6934404 587,32 L580.000273,32 Z" id="path-1"></path>
    </defs>
    <g id="Page-1" stroke="none" stroke-width="1" fill="none" fill-rule="evenodd">
        <g id="Group-3" transform="translate(0.000000, -0.000000)">
            <g id="Group-2" fill="#FFFFFF" fill-rule="nonzero">
                <g id="TogetherWithKnowitOnlyText">
                    <g id="Group" transform="translate(225.000000, 0.000000)">
                        <path d="M165.484615,7.67857143 C167.689397,7.67857143 169.369231,6.01833977 169.369231,3.83928571 C169.369231,1.66023166 167.689397,0 165.484615,0 C163.279834,0 161.6,1.66023166 161.6,3.83928571 C161.6,3.83928571 161.6,3.83928571 161.6,3.83928571 C161.6,5.91457529 163.384823,7.67857143 165.484615,7.67857143" id="Path"></path>
                        <path d="M31.4943993,13.3796287 L26.9969134,13.3796287 C25.5914491,13.3796287 25.4040539,13.5558601 23.8111943,15.0538271 L9.38176064,28.7117614 L9.38176064,7.29964502 C9.47545826,6.77095079 9.00697015,6.24225656 8.44478443,6.15414085 C8.3510868,6.15414085 8.25738918,6.15414085 8.16369156,6.15414085 L1.23006758,6.15414085 C0.667881856,6.06602515 0.105696128,6.50660367 0.011998507,7.03529791 C0.011998507,7.12341361 0.011998507,7.21152932 0.011998507,7.29964502 L0.011998507,10.2074633 C-0.0816991143,10.7361575 0.386788992,11.2648518 0.94897472,11.3529675 C1.04267234,11.3529675 1.13636996,11.3529675 1.23006758,11.3529675 L3.75990336,11.3529675 L3.75990336,37.787679 L1.23006758,37.787679 C0.667881856,37.6995633 0.105696128,38.1401418 0.011998507,38.6688361 C0.011998507,38.7569518 0.011998507,38.8450675 0.011998507,38.9331832 L0.011998507,41.8410015 C-0.0816991143,42.3696957 0.386788992,42.8983899 0.94897472,42.9865056 C1.04267234,42.9865056 1.13636996,42.9865056 1.23006758,42.9865056 L11.7242012,42.9865056 C12.2863869,43.0746213 12.8485726,42.7221585 12.9422702,42.1934643 C12.9422702,42.1053486 12.9422702,42.0172329 12.9422702,41.9291172 L12.9422702,38.9331832 C13.0359679,38.404489 12.5674798,37.8757947 12.005294,37.787679 C11.9115964,37.787679 11.8178988,37.787679 11.7242012,37.787679 L9.28806302,37.787679 L9.28806302,35.5847864 L14.7225251,30.3859598 L24.2796824,41.3123072 C25.4977515,42.8102742 25.4977515,42.8102742 27.3717039,42.8102742 L31.4943993,42.8102742 C32.056585,42.8983899 32.6187707,42.4578114 32.6187707,41.9291172 C32.6187707,41.8410015 32.6187707,41.7528858 32.6187707,41.6647701 L32.6187707,38.9331832 C32.7124683,38.404489 32.2439802,37.8757947 31.6817945,37.787679 C31.5880969,37.787679 31.4943993,37.787679 31.4007016,37.787679 L28.0275873,37.787679 L18.5641275,26.7732159 L27.1843087,18.4903396 L31.4007016,18.4903396 C31.9628874,18.5784553 32.4313755,18.1378768 32.5250731,17.6091825 C32.5250731,17.5210668 32.5250731,17.4329511 32.5250731,17.4329511 L32.5250731,14.4370171 C32.6187707,13.9083229 32.2439802,13.3796287 31.5880969,13.291513 C31.6817945,13.3796287 31.5880969,13.3796287 31.4943993,13.3796287" id="Path"></path>
                        <path d="M71.6707513,37.6186869 L69.0716332,37.6186869 L69.0716332,24.8205385 C69.0716332,17.2132475 63.8733971,12.2908827 55.8835157,12.2908827 C52.5142886,12.2013852 49.2413251,13.2753557 46.7384707,15.4232967 L46.7384707,13.991336 C46.8347343,13.4543507 46.3534162,12.9173655 45.7758344,12.9173655 C45.6795707,12.9173655 45.5833071,12.9173655 45.4870435,12.9173655 L38.556062,12.9173655 C37.9784802,12.827868 37.4008984,13.1858581 37.3046348,13.8123409 C37.3046348,13.9018385 37.3046348,13.991336 37.3046348,14.0808335 L37.3046348,17.0342524 C37.2083712,17.5712376 37.6896893,18.1082229 38.2672711,18.1977204 C38.3635347,18.1977204 38.4597984,18.1977204 38.556062,18.1977204 L41.1551801,18.1977204 L41.1551801,37.7081844 L38.556062,37.7081844 C37.9784802,37.6186869 37.4008984,38.0661746 37.3046348,38.6031598 C37.3046348,38.6926574 37.3046348,38.7821549 37.3046348,38.8716524 L37.3046348,41.8250713 C37.3046348,42.3620565 37.6896893,42.8990418 38.3635347,42.8990418 C38.4597984,42.8990418 38.4597984,42.8990418 38.556062,42.8990418 L49.3375887,42.8990418 C49.9151705,42.9885393 50.4927523,42.5410516 50.589016,42.0040664 C50.589016,41.9145688 50.589016,41.8250713 50.589016,41.8250713 L50.589016,38.7821549 C50.6852796,38.2451697 50.2039614,37.7081844 49.6263796,37.6186869 C49.530116,37.6186869 49.4338524,37.6186869 49.3375887,37.6186869 L46.8347343,37.6186869 L46.8347343,25.7155139 C46.8347343,20.7931491 50.4927523,17.302745 55.5947248,17.302745 C60.6966973,17.302745 63.4883426,20.2561639 63.4883426,25.3575237 L63.4883426,37.6186869 L60.8892245,37.6186869 C60.3116428,37.5291893 59.734061,37.976677 59.734061,38.6031598 C59.734061,38.6926574 59.734061,38.7821549 59.734061,38.8716524 L59.734061,41.8250713 C59.6377973,42.3620565 60.1191155,42.8990418 60.6966973,42.9885393 C60.7929609,42.9885393 60.8892245,42.9885393 60.9854882,42.9885393 L71.7670149,42.9885393 C72.3445967,43.0780369 72.9221785,42.6305492 73.0184421,42.0935639 C73.0184421,42.0040664 73.0184421,41.9145688 73.0184421,41.8250713 L73.0184421,38.7821549 C73.1147058,38.2451697 72.6333876,37.7081844 72.0558058,37.6186869 C71.8632786,37.6186869 71.7670149,37.6186869 71.6707513,37.6186869" id="Path"></path>
                        <path d="M89.3461538,10.75 C80.2841228,10.75 73.0344979,17.8857759 73.0344979,26.5969828 C73.0344979,26.6896552 73.0344979,26.7823276 73.0344979,26.9676724 C72.8437183,35.6788793 79.9979534,42.8146552 88.9645946,43 C89.0599844,43 89.1553742,43 89.250764,43 C98.3127951,43 105.65781,35.8642241 105.65781,27.1530172 C105.65781,27.0603448 105.65781,26.9676724 105.65781,26.875 C105.848589,18.1637931 98.6943543,11.0280172 89.727713,10.8426724 C89.5369334,10.75 89.4415436,10.75 89.3461538,10.75 M89.3461538,37.9411765 C83.4607497,37.9411765 78.9043077,33.1633987 78.9043077,27.0992961 C78.9043077,21.0351936 83.3658238,16.4411765 89.251228,16.4411765 C95.1366322,16.4411765 99.788,21.2189542 99.788,27.2830568 C99.788,33.3471594 95.231558,37.9411765 89.3461538,37.9411765" id="Shape"></path>
                        <path d="M155.743109,12.2996083 L144.408603,12.2996083 C143.817237,12.2082381 143.225872,12.5737189 143.127311,13.2133104 C143.127311,13.3046806 143.127311,13.3960508 143.127311,13.487421 L143.127311,16.5026381 C143.02875,17.0508594 143.521555,17.5990807 144.11292,17.6904509 C144.211481,17.6904509 144.310042,17.6904509 144.408603,17.6904509 L146.971187,17.6904509 L141.550336,33.8629787 L133.862584,13.2133104 C133.665462,12.6650891 133.074097,12.2996083 132.482731,12.2996083 L130.21583,12.2996083 C129.624464,12.2996083 129.033099,12.6650891 128.835977,13.2133104 L121.246786,33.8629787 L115.825935,17.5990807 L118.388519,17.5990807 C118.979884,17.6904509 119.57125,17.2335998 119.669811,16.6853785 C119.669811,16.5940083 119.669811,16.5026381 119.669811,16.4112679 L119.669811,13.3960508 C119.768372,12.8478296 119.275567,12.2996083 118.684202,12.2996083 C118.585641,12.2996083 118.48708,12.2996083 118.388519,12.2996083 L106.955452,12.2996083 C106.364086,12.2082381 105.772721,12.6650891 105.67416,13.2133104 C105.67416,13.3046806 105.67416,13.3960508 105.67416,13.3960508 L105.67416,16.4112679 C105.575599,16.9594892 106.068403,17.5077104 106.659769,17.5990807 C106.75833,17.5990807 106.856891,17.5990807 106.856891,17.5990807 L109.518036,17.5990807 L118.48708,42.0862979 C118.684202,42.6345191 119.275567,43 119.866933,43 L122.330956,43 C122.922321,43 123.513687,42.6345191 123.710809,42.0862979 L131.201439,21.9848509 L138.692069,42.0862979 C138.889191,42.6345191 139.480557,43 140.071922,43 L142.535945,43 C143.127311,43 143.718676,42.6345191 143.915798,42.0862979 L152.983403,17.5990807 L155.644548,17.5990807 C156.235914,17.6904509 156.827279,17.2335998 156.92584,16.6853785 C156.92584,16.5940083 156.92584,16.5026381 156.92584,16.5026381 L156.92584,13.487421 C157.024401,12.9391998 156.531597,12.3909785 155.940231,12.3909785 C155.940231,12.2996083 155.84167,12.2996083 155.743109,12.2996083" id="Path"></path>
                        <path d="M172.757871,37.5077867 L170.139946,37.5077867 L170.139946,13.3935144 C170.236906,12.8454628 169.752105,12.2974111 169.170344,12.2974111 C169.073384,12.2974111 168.976424,12.2974111 168.976424,12.2974111 L161.80137,12.2974111 C161.219609,12.2060692 160.637848,12.6627789 160.637848,13.2108305 C160.637848,13.3021725 160.637848,13.3935144 160.637848,13.4848564 L160.637848,16.4991404 C160.540888,17.047192 161.025689,17.5952437 161.60745,17.6865856 C161.70441,17.6865856 161.80137,17.6865856 161.89833,17.6865856 L164.516255,17.6865856 L164.516255,37.5991287 L159.765206,37.5991287 C159.183445,37.5077867 158.601684,37.9644964 158.504724,38.5125481 C158.504724,38.60389 158.504724,38.6952319 158.504724,38.7865739 L158.504724,41.8008579 C158.407764,42.3489096 158.892565,42.8969612 159.474326,42.9883032 C159.571286,42.9883032 159.668246,42.9883032 159.765206,42.9883032 L172.757871,42.9883032 C173.339632,43.0796451 173.921393,42.6229354 174.018353,42.0748837 C174.018353,41.9835418 174.018353,41.8921999 174.018353,41.8008579 L174.018353,38.6952319 C174.115313,38.1471803 173.630512,37.5991287 173.048751,37.5077867 C172.951791,37.5077867 172.854831,37.5077867 172.757871,37.5077867" id="Path"></path>
                        <path d="M197.586919,26.8002561 L194.630217,26.8002561 C194.075835,26.711335 193.521453,27.1559404 193.429056,27.6894668 C193.429056,27.7783879 193.429056,27.867309 193.429056,27.95623 L193.429056,33.4693364 C193.521453,35.5145211 191.858308,37.2929425 189.733179,37.3818636 C186.776477,37.3818636 185.48292,36.2258897 185.48292,33.3804154 L185.48292,17.3746225 L192.689881,17.3746225 C193.244263,17.4635436 193.798644,17.0189383 193.891041,16.4854118 C193.891041,16.3964908 193.891041,16.3075697 193.891041,16.2186486 L193.891041,13.2842533 C193.983438,12.7507268 193.521453,12.2172004 192.967072,12.2172004 C192.874675,12.2172004 192.782278,12.2172004 192.782278,12.2172004 L185.575317,12.2172004 L185.575317,6.08164648 C185.667714,5.54812006 185.298126,5.01459363 184.651347,4.92567256 C184.55895,4.92567256 184.466553,4.92567256 184.374156,4.92567256 L181.232661,4.92567256 C180.678279,4.83675149 180.123897,5.28135684 180.0315,5.81488327 C180.0315,5.90380434 180.0315,5.99272541 180.0315,6.08164648 L180.0315,12.3061215 L176.705211,12.3061215 C176.150829,12.2172004 175.596447,12.6618058 175.596447,13.1953322 C175.596447,13.2842533 175.596447,13.2842533 175.596447,13.3731743 L175.596447,16.3075697 C175.50405,16.8410961 175.966035,17.3746225 176.520417,17.4635436 C176.612814,17.4635436 176.705211,17.4635436 176.797608,17.4635436 L180.123897,17.4635436 L180.123897,33.7360997 C180.123897,39.0713639 183.727378,42.5392857 189.363591,42.5392857 C195.184598,42.5392857 198.880476,39.160285 198.880476,34.0028629 L198.880476,28.0451511 C198.972873,27.5116247 198.510888,26.9780982 197.956506,26.8891772 C197.864109,26.8002561 197.771712,26.8002561 197.586919,26.8002561" id="Path"></path>
                    </g>
                    <path d="M8.93199929,42.6866755 L8.93199929,27.421504 L14.234992,27.421504 L14.234992,24.3133245 L0,24.3133245 L0,27.421504 L5.31521162,27.421504 L5.31521162,42.6866755 L8.93199929,42.6866755 Z M24.095626,43 C26.7267576,43 28.8284045,42.1623791 30.4005667,40.4871372 C31.9727289,38.8118953 32.75881,36.4912049 32.75881,33.525066 C32.75881,30.533861 31.9666194,28.1985488 30.3822384,26.5191293 C28.7978573,24.8397098 26.686028,24 24.0467505,24 C22.5886311,24 21.3015761,24.2423043 20.1855853,24.7269129 C19.3465557,25.0861917 18.5747299,25.6376429 17.870108,26.3812665 C17.1654861,27.1248901 16.6095272,27.9645998 16.2022313,28.9003958 C15.6564548,30.1704046 15.3835665,31.7412049 15.3835665,33.6127968 C15.3835665,36.5371592 16.1696476,38.8327836 17.7418098,40.4996702 C19.313972,42.1665567 21.4319107,43 24.095626,43 Z M24.0834071,39.8291557 C22.6415796,39.8291557 21.4522755,39.2923263 20.515495,38.2186675 C19.5787144,37.1450088 19.1103241,35.567942 19.1103241,33.487467 C19.1103241,31.3735708 19.5664955,29.7923263 20.4788383,28.7437335 C21.3911812,27.6951407 22.5927041,27.1708443 24.0834071,27.1708443 C25.5741101,27.1708443 26.7695236,27.6888742 27.6696476,28.724934 C28.5697716,29.7609938 29.0198335,31.3317942 29.0198335,33.4373351 C29.0198335,35.567942 28.5575527,37.1658971 27.632991,38.2312005 C26.7084293,39.296504 25.5252346,39.8291557 24.0834071,39.8291557 Z M44.0490526,43 C45.5234638,43 46.9795467,42.7138303 48.4173012,42.1414908 C49.8550558,41.5691513 50.9527183,40.9069921 51.7102886,40.1550132 L51.7102886,40.1550132 L51.7102886,32.835752 L43.9146449,32.835752 L43.9146449,35.9313984 L48.0568443,35.9313984 L48.0568443,38.262533 C47.5110678,38.6970097 46.8573579,39.0667326 46.0957145,39.3717018 C45.3340712,39.6766711 44.5744643,39.8291557 43.8168939,39.8291557 C42.2854613,39.8291557 41.0472817,39.283971 40.1023552,38.1936016 C39.1574287,37.1032322 38.6849655,35.4676781 38.6849655,33.2869393 C38.6849655,31.2649516 39.1513193,29.7401055 40.0840269,28.7124011 C41.0167345,27.6846966 42.2732424,27.1708443 43.8535506,27.1708443 C44.8962281,27.1708443 45.7658049,27.4319481 46.4622809,27.9541557 C47.1587569,28.4763632 47.6332566,29.1886544 47.8857801,30.091029 L47.8857801,30.091029 L51.47813,29.401715 C51.1197096,27.7139402 50.3153002,26.3917106 49.0649017,25.4350264 C47.8145033,24.4783421 46.0773862,24 43.8535506,24 C42.1429077,24 40.7132991,24.3049692 39.5647246,24.9149077 C38.0577298,25.7086631 36.9132283,26.8491645 36.1312201,28.3364116 C35.349212,29.8236588 34.9582079,31.5239666 34.9582079,33.4373351 C34.9582079,35.2003078 35.3084824,36.8316843 36.0090313,38.3314644 C36.7095803,39.8312445 37.7563308,40.9842788 39.1492828,41.7905673 C40.5422348,42.5968558 42.1754914,43 44.0490526,43 Z M68.6700903,42.6866755 L68.6700903,39.591029 L58.6628298,39.591029 L58.6628298,34.5903694 L67.6559235,34.5903694 L67.6559235,31.494723 L58.6628298,31.494723 L58.6628298,27.421504 L68.3279617,27.421504 L68.3279617,24.3133245 L55.0460421,24.3133245 L55.0460421,42.6866755 L68.6700903,42.6866755 Z M79.3860457,42.6866755 L79.3860457,27.421504 L84.6890384,27.421504 L84.6890384,24.3133245 L70.4540464,24.3133245 L70.4540464,27.421504 L75.769258,27.421504 L75.769258,42.6866755 L79.3860457,42.6866755 Z M90.6518505,42.6866755 L90.6518505,34.6530343 L97.7387994,34.6530343 L97.7387994,42.6866755 L101.355587,42.6866755 L101.355587,24.3133245 L97.7387994,24.3133245 L97.7387994,31.5448549 L90.6518505,31.5448549 L90.6518505,24.3133245 L87.0350629,24.3133245 L87.0350629,42.6866755 L90.6518505,42.6866755 Z M118.718612,42.6866755 L118.718612,39.591029 L108.711351,39.591029 L108.711351,34.5903694 L117.704445,34.5903694 L117.704445,31.494723 L108.711351,31.494723 L108.711351,27.421504 L118.376483,27.421504 L118.376483,24.3133245 L105.094563,24.3133245 L105.094563,42.6866755 L118.718612,42.6866755 Z M125.414556,42.6866755 L125.414556,35.0164908 L126.147689,35.0164908 C126.978573,35.0164908 127.585444,35.0854222 127.968302,35.223285 C128.35116,35.3611478 128.713653,35.615985 129.055782,35.9877968 C129.39791,36.3596086 130.033292,37.2598945 130.961927,38.6886544 L130.961927,38.6886544 L133.576766,42.6866755 L137.902249,42.6866755 L135.71507,39.1022427 C134.851603,37.6734828 134.165309,36.6791996 133.656189,36.1193931 C133.147069,35.5595866 132.501505,35.0457344 131.719497,34.5778364 C133.291659,34.3438874 134.472817,33.7778144 135.262971,32.8796174 C136.053126,31.9814204 136.448203,30.8430079 136.448203,29.4643799 C136.448203,28.3781882 136.187533,27.4131486 135.666194,26.5692612 C135.144856,25.7253738 134.450416,25.1384125 133.582876,24.8083773 C132.715336,24.4783421 131.32442,24.3133245 129.410129,24.3133245 L129.410129,24.3133245 L121.797769,24.3133245 L121.797769,42.6866755 L125.414556,42.6866755 Z M128.389916,32.0829925 L125.414556,32.0837731 L125.414556,27.421504 L128.237117,27.421504 C129.703382,27.421504 130.583141,27.4423923 130.876395,27.4841689 C131.462901,27.5844327 131.917036,27.8246482 132.238799,28.2048153 C132.560563,28.5849824 132.721445,29.0842128 132.721445,29.7025066 C132.721445,30.2539578 132.599256,30.7135004 132.354879,31.0811346 C132.110501,31.4487687 131.772446,31.7077836 131.340712,31.8581794 C130.908978,32.0085752 129.825571,32.0837731 128.090491,32.0837731 L128.389916,32.0829925 Z M153.273597,42.6866755 L156.82929,28.9505277 L160.397202,42.6866755 L164.23393,42.6866755 L168.58385,24.3133245 L164.942624,24.3133245 L162.193377,37.1470976 L159.053126,24.3133245 L154.752081,24.3133245 L151.477422,36.9340369 L148.77705,24.3133245 L145.07473,24.3133245 L149.351337,42.6866755 L153.273597,42.6866755 Z M173.935718,42.6866755 L173.935718,24.3133245 L170.31893,24.3133245 L170.31893,42.6866755 L173.935718,42.6866755 Z M185.030459,42.6866755 L185.030459,27.421504 L190.333451,27.421504 L190.333451,24.3133245 L176.098459,24.3133245 L176.098459,27.421504 L181.413671,27.421504 L181.413671,42.6866755 L185.030459,42.6866755 Z M196.296264,42.6866755 L196.296264,34.6530343 L203.383212,34.6530343 L203.383212,42.6866755 L207,42.6866755 L207,24.3133245 L203.383212,24.3133245 L203.383212,31.5448549 L196.296264,31.5448549 L196.296264,24.3133245 L192.679476,24.3133245 L192.679476,42.6866755 L196.296264,42.6866755 Z" id="TOGETHERWITH"></path>
                </g>
            </g>
            <mask id="mask-2" fill="white">
                <use xlink:href="#path-1"></use>
            </mask>
            <use id="CoCreate" fill="#FFFFFF" fill-rule="nonzero" xlink:href="#path-1"></use>
        </g>
    </g>
</svg>